<?xml version="1.0" standalone="no"?><!DOCTYPE svg PUBLIC "-//W3C//DTD SVG 1.1//EN" "http://www.w3.org/Graphics/SVG/1.1/DTD/svg11.dtd"><svg t="1659343435091" class="icon" viewBox="0 0 1024 1024" version="1.1" xmlns="http://www.w3.org/2000/svg" p-id="14554" xmlns:xlink="http://www.w3.org/1999/xlink" width="200" height="200"><defs><style type="text/css">@font-face { font-family: element-icons; src: url("chrome-extension://eibnkkenjjeaadmjkngfincfnapgpeao/fonts/element-icons.woff") format("woff"), url("chrome-extension://eibnkkenjjeaadmjkngfincfnapgpeao/fonts/element-icons.ttf") format("truetype"); }
</style></defs><path d="M72.516082 654.330636l0.022513 279.441387c0.021489 14.249539 11.535731 25.762757 25.78527 25.784246l825.899176-0.045025c6.817266 0.022513 13.407358-2.736321 18.215874-7.546883 4.810562-4.809539 7.570419-11.398608 7.546883-18.215874l-0.046049-279.418874c0-7.158027-2.87242-13.58746-7.546883-18.261922-4.672416-4.673439-11.124362-7.568373-18.237363-7.568373l-825.832661 0.021489c-6.839779 0-13.405311 2.735297-18.238386 7.568373-4.833075 4.833075-7.546883 11.376095-7.569396 18.23941L72.516082 654.328589 72.516082 654.330636zM895.346363 904.870786l-52.037167 0.022513 0-66.51081c0-7.113001-2.89391-13.564947-7.568373-18.238386s-11.126408-7.569396-18.237363-7.569396c-14.248516 0.022513-25.762757 11.535731-25.786293 25.78527l0 66.51081-45.11757 0.022513 0-66.511833c0-7.111978-2.895957-13.563924-7.570419-18.237363-4.672416-4.673439-11.124362-7.569396-18.237363-7.570419-14.248516 0.022513-25.762757 11.536754-25.808806 25.809829l0 66.51081-45.093011-0.001023-0.002047-130.209574c0.002047-7.113001-2.89391-13.564947-7.568373-18.238386s-11.124362-7.569396-18.23941-7.569396c-14.248516 0.022513-25.7822 11.558244-25.806759 25.808806L598.273411 904.892275l-45.095058 0 0-66.51081c0-7.113001-2.89391-13.56597-7.568373-18.23941s-11.126408-7.568373-18.23941-7.568373c-14.248516 0.022513-25.784246 11.559267-25.806759 25.807782l0 66.511833L456.418612 904.893298l0-66.556858c0-7.113001-2.917446-13.58746-7.568373-18.23941-4.650927-4.650927-11.102872-7.54586-18.215874-7.54586-14.271028 0-25.808806 11.535731-25.807782 25.807782l0 66.556858L359.685477 904.915811l0.022513-130.234133c0-7.113001-2.871397-13.541411-7.544837-18.215874-4.673439-4.672416-11.103896-7.546883-18.216897-7.546883-14.271028 0.002047-25.806759 11.537777-25.78527 25.784246l-0.022513 130.235157-45.164642 0.022513 0-66.556858c0-7.113001-2.871397-13.542434-7.544837-18.215874-4.674463-4.674463-11.103896-7.54586-18.216897-7.54586-14.272052 0-25.807782 11.534707-25.807782 25.807782l-0.022513 66.535369-84.134189 0.021489 0-221.709521 768.053724-0.1361L895.346363 904.870786z" p-id="14555" fill="#8a8a8a"></path><path d="M946.454368 181.178409 806.123272 69.715805c-13.352099-10.606569-32.774451-8.390088-43.395346 4.951779L556.955376 333.168032c-2.924609 3.673669-4.974291 7.966439-5.990434 12.548804L513.754458 513.325182c-5.058203 22.791076 16.008602 42.745547 38.490639 36.458353l171.877579-48.069809c6.275937-1.752924 11.838629-5.450129 15.886829-10.556427l211.435527-266.577405C962.045461 211.215516 959.812607 191.789071 946.454368 181.178409L946.454368 181.178409zM701.030749 447.433472 581.46049 481.192344l25.079188-117.650537 183.839005-232.611825L890.218576 208.890564 701.030749 447.433472z" p-id="14556" fill="#8a8a8a"></path><path d="M126.943692 570.69889c0 8.512884-6.16849 15.414061-13.778818 15.414061L85.609285 586.112951c-7.610328 0-13.778818-6.901177-13.778818-15.414061L71.830467 79.399351c0-8.512884 6.16849-15.414061 13.778818-15.414061l27.554566 0c7.610328 0 13.778818 6.901177 13.778818 15.414061L126.942669 570.69889z" p-id="14557" fill="#8a8a8a"></path><path d="M478.186382 575.370283c0 6.244214-5.615904 11.30651-12.543687 11.30651L84.631004 586.676793c-6.927783 0-12.543687-5.062296-12.543687-11.30651l0-32.501228c0-6.245238 5.615904-11.30651 12.543687-11.30651l381.01169 0c6.928806 0 12.543687 5.061272 12.543687 11.30651L478.186382 575.370283z" p-id="14558" fill="#8a8a8a"></path><path d="M310.17997 370.636389c4.16281 4.236488 3.567245 11.57257-1.329275 16.385179L140.380726 552.574091c-4.897543 4.812609-12.241812 5.279237-16.405645 1.043772l-23.553439-23.968901c-4.16281-4.236488-3.567245-11.571546 1.329275-16.384156l168.468946-165.55457c4.897543-4.812609 12.241812-5.28026 16.405645-1.043772L310.17997 370.636389z" p-id="14559" fill="#8a8a8a"></path></svg>