<?xml version="1.0" standalone="no"?><!DOCTYPE svg PUBLIC "-//W3C//DTD SVG 1.1//EN" "http://www.w3.org/Graphics/SVG/1.1/DTD/svg11.dtd"><svg t="1660653041161" class="icon" viewBox="0 0 1114 1024" version="1.1" xmlns="http://www.w3.org/2000/svg" p-id="1600" xmlns:xlink="http://www.w3.org/1999/xlink" width="217.578125" height="200"><defs><style type="text/css">@font-face { font-family: element-icons; src: url("chrome-extension://eibnkkenjjeaadmjkngfincfnapgpeao/fonts/element-icons.woff") format("woff"), url("chrome-extension://eibnkkenjjeaadmjkngfincfnapgpeao/fonts/element-icons.ttf") format("truetype"); }
@font-face { font-family: feedback-iconfont; src: url("//at.alicdn.com/t/font_1031158_u69w8yhxdu.woff2?t=1630033759944") format("woff2"), url("//at.alicdn.com/t/font_1031158_u69w8yhxdu.woff?t=1630033759944") format("woff"), url("//at.alicdn.com/t/font_1031158_u69w8yhxdu.ttf?t=1630033759944") format("truetype"); }
</style></defs><path d="M283.015075 180.100503h272.723618v126.927973h303.59799c48.026801 3.430486 219.551089 39.450586 221.266332 169.809045 0 162.948074 10.291457 272.723618-162.948074 295.021775h-120.067001l-147.510888-32.589614-61.748744 32.589614h-138.934673l-92.623116-32.589614-72.040201 32.589614V180.100503z" fill="#FFDC68" p-id="1601"></path><path d="M905.648241 811.309883c-6.860972 0-13.721943-5.145729-17.152429-12.0067-3.430486-8.576214 3.430486-18.867672 12.006701-20.582915C1010.278057 747.845896 1080.603015 660.368509 1080.603015 557.453936c0-126.927973-108.060302-228.127303-241.849246-228.127303H490.559464c-10.291457 0-17.152429-6.860972-17.152429-17.152429s6.860972-17.152429 17.152429-17.152428h348.194305c152.656616 0 276.154104 118.351759 276.154104 262.43216 0 118.351759-80.616415 217.835846-204.113903 253.855947h-5.145729z" fill="#08BA9C" p-id="1602"></path><path d="M180.100503 895.356784H121.782245c-10.291457 0-17.152429-6.860972-17.152429-17.152429V101.19933c0-10.291457 6.860972-17.152429 17.152429-17.152429h365.346733c10.291457 0 17.152429 6.860972 17.152429 17.152429v205.829146c0 10.291457-6.860972 17.152429-17.152429 17.152429s-17.152429-6.860972-17.152429-17.152429v-188.676717H138.934673v742.700167h41.16583c10.291457 0 17.152429 6.860972 17.152428 17.152429s-8.576214 17.152429-17.152428 17.152429z" fill="#08BA9C" p-id="1603"></path><path d="M766.713568 325.896147v-150.941373L703.249581 51.457286h173.239531l-61.748743 104.629816v1.715243h13.721943V325.896147h-61.748744z" fill="#FFDC68" p-id="1604"></path><path d="M804.448911 291.59129V147.510888c0-6.860972 1.715243-12.0067 5.145729-17.152429L866.197655 34.304858h-188.676717l56.603015 94.338358c3.430486 5.145729 5.145729 12.0067 5.145729 17.152429V291.59129h65.179229m34.304858 34.304857h-133.788945V147.510888L617.487437 0h308.743719l-87.477387 147.510888V325.896147z" fill="#08BA9C" p-id="1605"></path><path d="M394.505863 909.078727m-85.762144 0a85.762144 85.762144 0 1 0 171.524288 0 85.762144 85.762144 0 1 0-171.524288 0Z" fill="#FFDC68" p-id="1606"></path><path d="M720.40201 909.078727m-85.762144 0a85.762144 85.762144 0 1 0 171.524288 0 85.762144 85.762144 0 1 0-171.524288 0Z" fill="#FFDC68" p-id="1607"></path><path d="M351.624791 1011.9933c-80.616415 0-145.795645-65.179229-145.795645-145.795645s65.179229-145.795645 145.795645-145.795645 145.795645 65.179229 145.795645 145.795645-65.179229 145.795645-145.795645 145.795645z m0-257.286432c-61.748744 0-111.490787 49.742044-111.490788 111.490787s49.742044 111.490787 111.490788 111.490787 111.490787-49.742044 111.490787-111.490787-49.742044-111.490787-111.490787-111.490787z" fill="#08BA9C" p-id="1608"></path><path d="M677.520938 1011.9933c-80.616415 0-145.795645-65.179229-145.795645-145.795645s65.179229-145.795645 145.795645-145.795645 145.795645 65.179229 145.795645 145.795645-65.179229 145.795645-145.795645 145.795645z m0-257.286432c-61.748744 0-111.490787 49.742044-111.490787 111.490787s49.742044 111.490787 111.490787 111.490787 111.490787-49.742044 111.490787-111.490787-49.742044-111.490787-111.490787-111.490787z" fill="#08BA9C" p-id="1609"></path><path d="M991.410385 1017.139028c-6.860972 0-12.0067-3.430486-15.437186-8.576214L833.60804 737.554439c-5.145729-8.576214-1.715243-18.867672 6.860972-22.298158 8.576214-5.145729 18.867672-1.715243 22.298157 6.860972l142.365159 271.008375c5.145729 8.576214 1.715243 18.867672-6.860971 22.298158-1.715243 1.715243-5.145729 1.715243-6.860972 1.715242z" fill="#08BA9C" p-id="1610"></path><path d="M917.654941 895.356784h-68.609715c-10.291457 0-17.152429-6.860972-17.152429-17.152429s6.860972-17.152429 17.152429-17.152429h68.609715c10.291457 0 17.152429 6.860972 17.152429 17.152429s-6.860972 17.152429-17.152429 17.152429z" fill="#08BA9C" p-id="1611"></path><path d="M394.505863 548.877722H222.981575c-10.291457 0-17.152429-6.860972-17.152429-17.152429V257.286432c0-10.291457 6.860972-17.152429 17.152429-17.152429h171.524288c10.291457 0 17.152429 6.860972 17.152428 17.152429v274.438861c0 10.291457-6.860972 17.152429-17.152428 17.152429z m-154.37186-34.304858h137.219431V274.438861h-137.219431v240.134003z" fill="#08BA9C" p-id="1612"></path><path d="M0 566.030151h137.21943v205.829145H0z" fill="#08BA9C" p-id="1613"></path><path d="M120.067002 771.859296H17.152429c-10.291457 0-17.152429-6.860972-17.152429-17.152428V583.18258c0-10.291457 6.860972-17.152429 17.152429-17.152429h102.914573c10.291457 0 17.152429 6.860972 17.152428 17.152429v171.524288c0 10.291457-6.860972 17.152429-17.152428 17.152428z m-85.762144-34.304857h68.609715v-137.219431H34.304858v137.219431z" fill="#08BA9C" p-id="1614"></path></svg>